HIERARCHY
ROOT Hips
{
    OFFSET 0.000000 0.000000 0.000000
    CHANNELS 6 Xposition Yposition Zposition Zrotation Xrotation Yrotation
    JOINT Spine
    {
        OFFSET -0.000000 14.517291 0.000000
        CHANNELS 3 Zrotation Xrotation Yrotation
        JOINT Spine1
        {
            OFFSET -0.000000 37.558300 0.000000
            CHANNELS 3 Zrotation Xrotation Yrotation
            JOINT Neck
            {
                OFFSET -0.000000 37.404057 3.400369
                CHANNELS 3 Zrotation Xrotation Yrotation
                JOINT Head
                {
                    OFFSET -0.000000 24.785618 -3.540803
                    CHANNELS 3 Zrotation Xrotation Yrotation
                    End Site
                    {
                        OFFSET -0.000000 35.408028 0.000000
                    }
                }
            }
            JOINT LeftShoulder
            {
                OFFSET 6.992933 33.973492 -0.192664
                CHANNELS 3 Zrotation Xrotation Yrotation
                JOINT LeftArm
                {
                    OFFSET 21.527611 0.000000 0.000000
                    CHANNELS 3 Zrotation Xrotation Yrotation
                    JOINT LeftForeArm
                    {
                        OFFSET 56.353916 0.000000 0.000000
                        CHANNELS 3 Zrotation Xrotation Yrotation
                        JOINT LeftHand
                        {
                            OFFSET 47.774071 0.000000 0.000000
                            CHANNELS 3 Zrotation Xrotation Yrotation
                            End Site
                            {
                                OFFSET 26.556021 0.000000 0.000000
                            }
                        }
                    }
                }
            }
            JOINT RightShoulder
            {
                OFFSET -7.065357 33.973492 -0.192664
                CHANNELS 3 Zrotation Xrotation Yrotation
                JOINT RightArm
                {
                    OFFSET -21.527611 0.000000 0.000000
                    CHANNELS 3 Zrotation Xrotation Yrotation
                    JOINT RightForeArm
                    {
                        OFFSET -56.353916 0.000000 0.000000
                        CHANNELS 3 Zrotation Xrotation Yrotation
                        JOINT RightHand
                        {
                            OFFSET -47.774071 0.000000 0.000000
                            CHANNELS 3 Zrotation Xrotation Yrotation
                            End Site
                            {
                                OFFSET -26.556021 0.000000 0.000000
                            }
                        }
                    }
                }
            }
        }
    }
    JOINT LeftUpLeg
    {
        OFFSET 17.704014 0.000000 0.000000
        CHANNELS 3 Zrotation Xrotation Yrotation
        JOINT LeftLeg
        {
            OFFSET -0.000000 -81.181816 0.000000
            CHANNELS 3 Zrotation Xrotation Yrotation
            JOINT LeftFoot
            {
                OFFSET -0.000000 -62.821102 0.000000
                CHANNELS 3 Zrotation Xrotation Yrotation
                JOINT LeftToeBase
                {
                    OFFSET -0.000000 -11.507608 26.556021
                    CHANNELS 3 Zrotation Xrotation Yrotation
                    End Site
                    {
                        OFFSET -0.000000 0.000000 7.081605
                    }
                }
            }
        }
    }
    JOINT RightUpLeg
    {
        OFFSET -17.704014 0.000000 0.000000
        CHANNELS 3 Zrotation Xrotation Yrotation
        JOINT RightLeg
        {
            OFFSET -0.000000 -81.181816 0.000000
            CHANNELS 3 Zrotation Xrotation Yrotation
            JOINT RightFoot
            {
                OFFSET -0.000000 -62.821102 0.000000
                CHANNELS 3 Zrotation Xrotation Yrotation
                JOINT RightToeBase
                {
                    OFFSET -0.000000 -11.507608 26.556021
                    CHANNELS 3 Zrotation Xrotation Yrotation
                    End Site
                    {
                        OFFSET -0.000000 0.000000 7.081605
                    }
                }
            }
        }
    }
}
MOTION
Frames:    5
Frame Time:    0.008333
16.241785    154.794830    -101.808739    0.628809    -5.815511    42.012363    -0.684101    0.361159    0.403486    -4.851436    1.106285    0.180249    0.296390    0.280507    -21.027939    17.069811    7.951450    -20.818115    4.480201    7.943280    -18.583164    -28.330559    22.521946    -50.698242    -5.774266    -8.009452    -107.705971    6.597668    -16.300100    -9.763730    -8.858964    -1.053594    -1.319016    23.413197    -22.721245    53.372822    -14.111784    -15.916777    64.731110    4.288877    -5.471013    41.777164    17.981201    -1.734279    -0.879224    -13.879317    34.837185    -17.943050    4.712530    -28.178617    43.748608    0.000000    0.000000    0.000000    -17.910040    -15.715966    -14.106738    13.047704    32.280312    -13.967843    4.679351    -1.884740    -18.391979    0.000000    0.000000    0.000000    
16.261047    154.782852    -101.822533    0.623620    -5.792944    41.990036    -0.734196    0.374149    0.348558    -4.801217    1.092379    0.160893    0.317128    0.326094    -21.001963    17.101458    7.872263    -20.779539    4.504839    7.950686    -18.565243    -28.327929    22.502205    -50.781689    -4.983739    -7.822842    -107.223869    7.143475    -15.076326    -10.080095    -8.659455    -0.951104    -1.412860    23.191082    -22.427237    52.761574    -14.168482    -15.869289    64.508110    4.123343    -5.483256    41.871288    17.961754    -1.765511    -0.895066    -13.912005    34.877644    -17.896450    4.719851    -28.201170    43.759571    0.000000    0.000000    0.000000    -17.927498    -15.744076    -14.089946    13.056237    32.284748    -13.969627    4.680288    -1.897817    -18.403971    0.000000    0.000000    0.000000    
16.280071    154.767883    -101.828262    0.615631    -5.782246    41.968212    -0.777470    0.386854    0.288981    -4.748565    1.093491    0.140320    0.339752    0.359991    -20.973978    17.129255    7.797083    -20.739964    4.537590    7.956770    -18.523298    -28.377611    22.512949    -50.764217    -5.090902    -7.822542    -107.297478    7.010751    -15.202810    -9.877273    -8.454514    -0.828186    -1.511044    23.086666    -22.220570    52.324436    -14.259216    -15.714699    64.158012    4.013421    -5.367163    41.897984    17.955494    -1.777544    -0.905126    -13.935300    34.898521    -17.878382    4.752152    -28.215586    43.777622    0.000000    0.000000    0.000000    -17.930124    -15.766500    -14.071075    13.059484    32.291286    -13.954122    4.665119    -1.911536    -18.427809    0.000000    0.000000    0.000000    
16.301769    154.756134    -101.835358    0.610413    -5.772871    41.949806    -0.814703    0.398714    0.238841    -4.718613    1.104352    0.124231    0.409178    0.371681    -20.945871    17.117266    7.728063    -20.710796    4.595005    7.960155    -18.498901    -28.417505    22.534155    -50.772804    -5.086897    -7.846649    -107.341225    7.008205    -15.221030    -9.791485    -8.243892    -0.728841    -1.638174    23.073849    -22.044127    51.927647    -14.270871    -15.515491    63.882404    3.653248    -5.340429    41.865269    17.942650    -1.788018    -0.913117    -13.923110    35.031891    -17.869946    4.745306    -28.320723    43.731651    0.000000    0.000000    0.000000    -17.934258    -15.781322    -14.056383    13.058449    32.296143    -13.949732    4.658397    -1.936022    -18.424690    0.000000    0.000000    0.000000    
16.319258    154.743439    -101.843430    0.606980    -5.757541    41.932793    -0.865647    0.409333    0.188165    -4.663521    1.107780    0.106379    0.439992    0.400775    -20.917255    17.130753    7.657670    -20.673399    4.630162    7.971753    -18.496223    -28.436144    22.555756    -50.755547    -5.098070    -7.862714    -107.374908    7.067634    -15.256846    -9.730507    -8.067779    -0.631930    -1.739176    22.943958    -21.733240    51.453011    -14.342813    -15.536438    63.567577    3.516441    -5.420672    41.950478    17.928980    -1.801526    -0.905155    -13.938442    35.052643    -17.850147    4.757836    -28.342672    43.736282    0.000000    0.000000    0.000000    -17.946423    -15.801489    -14.032397    13.071516    32.299591    -13.944988    4.637950    -1.944345    -18.449551    0.000000    0.000000    0.000000    
